<svg viewBox="0 0 35 48" fill="none" xmlns="http://www.w3.org/2000/svg">
<path d="M26.6632 1.77614H23.841L26.7765 4.96167V6.47667H20.7288V4.70245H23.6643L20.7288 1.51692V0H26.6651L26.6632 1.77614ZM19.5281 1.77614H16.702L19.6414 4.96167V6.47667H13.5917V4.70245H16.5272L13.5917 1.51692V0H19.5281V1.77614ZM12.4621 1.84911H9.41705V4.62949H12.4621V6.47859H7.25V0H12.4621V1.84911Z" fill="#ADB0B5"/>
<path d="M3.09689 44.1462L0 9.43555H34.0235L30.9228 44.1404L16.9906 47.9999L3.09689 44.1462Z" fill="#ADB0B5"/>
<path d="M17.0117 45.0504L28.2696 41.9302L30.917 12.2734H17.0117V45.0504Z" fill="#DBDBDB"/>
<path d="M17.0117 24.8492H22.6484L23.0364 20.4904H17.0117V16.2354H27.6933L27.5915 17.3778L26.5445 29.11H17.0117V24.8492Z" fill="white"/>
<path d="M17.034 35.9051H17.0148L12.2715 34.6243L11.9679 31.2295H7.69531L8.29279 37.9135L17.0186 40.3406H17.0436V35.9051H17.034Z" fill="#EBEBEB"/>
<path d="M22.2874 28.9228L21.7744 34.6199L17.0234 35.9007V40.3362L25.7551 37.9168L25.8185 37.1968L26.56 28.9209H22.2874V28.9228Z" fill="white"/>
<path d="M17.0255 16.2354V20.4923H6.7397L6.65133 19.5361L6.45729 17.3778L6.35547 16.2354H17.0255ZM17.0102 24.8492V29.1061H12.3206L12.238 28.1499L12.044 25.9916L11.9422 24.8492H17.0082H17.0102Z" fill="#EBEBEB"/>
</svg>
