<svg viewBox="0 0 129 48" fill="none" xmlns="http://www.w3.org/2000/svg">
<path d="M9.69579 14.5339C9.44558 14.5339 9.38302 14.4088 9.50813 14.2211L10.8218 12.5322C10.9469 12.3445 11.2596 12.2194 11.5098 12.2194H33.8414C34.0917 12.2194 34.1542 12.4071 34.0291 12.5947L32.9657 14.2211C32.8406 14.4088 32.5278 14.5964 32.3402 14.5964L9.69579 14.5339ZM0.250214 20.2888C0 20.2888 -0.0625535 20.1637 0.0625535 19.976L1.37618 18.2871C1.50128 18.0994 1.81405 17.9743 2.06427 17.9743H30.5887C30.8389 17.9743 30.964 18.162 30.9014 18.3496L30.401 19.8509C30.3384 20.1011 30.0882 20.2262 29.838 20.2262L0.250214 20.2888ZM15.3882 26.0437C15.1379 26.0437 15.0754 25.8561 15.2005 25.6684L16.0762 24.1046C16.2014 23.9169 16.4516 23.7292 16.7018 23.7292H29.2125C29.4627 23.7292 29.5878 23.9169 29.5878 24.1671L29.4627 25.6684C29.4627 25.9186 29.2125 26.1063 29.0248 26.1063L15.3882 26.0437ZM80.3187 13.4079C76.3778 14.4088 73.688 15.1594 69.8097 16.1603C68.8714 16.4105 68.8088 16.473 67.9956 15.5347C67.0573 14.4713 66.3693 13.7832 65.0556 13.1577C61.1148 11.2185 57.299 11.7815 53.7334 14.096C49.4798 16.8484 47.2904 20.9143 47.353 25.9812C47.4155 30.9855 50.856 35.114 55.7977 35.8021C60.0514 36.365 63.6169 34.8638 66.4318 31.6735C66.9948 30.9855 67.4952 30.2348 68.1208 29.3591H56.0479C54.7343 29.3591 54.4215 28.5459 54.8594 27.4825C55.6726 25.5433 57.1739 22.2905 58.0496 20.6641C58.2373 20.2888 58.6752 19.6633 59.6135 19.6633H82.3829C82.2578 21.3522 82.2578 23.0412 82.0076 24.7301C81.3195 29.234 79.6306 33.3625 76.8782 36.9906C72.3744 42.9332 66.4944 46.6238 59.0505 47.6247C52.9203 48.4379 47.2279 47.2494 42.2236 43.4961C37.5946 39.9932 34.9674 35.3642 34.2793 29.6093C33.4661 22.7909 35.4678 16.6607 39.5964 11.2811C44.0377 5.46363 49.9177 1.77297 57.1113 0.459347C62.9914 -0.604062 68.6212 0.0840262 73.688 3.52447C77.0033 5.71384 79.3804 8.71641 80.9442 12.3445C81.3195 12.9075 81.0693 13.2203 80.3187 13.4079Z" fill="#ADB0B5"/>
<path d="M101.025 47.9999C95.3329 47.8748 90.141 46.2484 85.7622 42.4952C82.0716 39.3049 79.7571 35.239 79.0064 30.4223C77.8805 23.3538 79.8196 17.0984 84.0733 11.5312C88.6397 5.52605 94.1444 2.39837 101.588 1.08475C107.969 -0.0412143 113.974 0.584321 119.416 4.27498C124.358 7.65286 127.423 12.2193 128.236 18.2244C129.299 26.6691 126.86 33.55 121.042 39.43C116.914 43.6211 111.847 46.2484 106.03 47.4369C104.341 47.7496 102.652 47.8122 101.025 47.9999ZM115.913 22.7283C115.85 21.9151 115.85 21.2895 115.725 20.664C114.599 14.4712 108.907 10.9682 102.964 12.3444C97.1469 13.658 93.3937 17.3487 92.0176 23.2287C90.8916 28.1079 93.2686 33.0496 97.7725 35.0513C101.213 36.5526 104.653 36.3649 107.969 34.676C112.91 32.1113 115.6 28.1079 115.913 22.7283Z" fill="#ADB0B5"/>
</svg>
