<svg viewBox="0 0 34 48" fill="none" xmlns="http://www.w3.org/2000/svg">
<path d="M33.9699 9.43359L30.8752 44.1398L16.9642 48.0004L3.09153 44.1451L0 9.43359H33.9699Z" fill="#ADB0B5"/>
<path d="M16.9844 45.0492L28.2252 41.9296L30.8697 12.2715H16.9844V45.0492Z" fill="#DBDBDB"/>
<path d="M10.9679 20.7855H16.984V16.5283H6.32031L6.42205 17.6704L7.46733 29.4022H16.984V25.145H11.3566L10.9679 20.7855V20.7855ZM11.9264 31.5309H7.65735L8.2531 38.2154L16.9644 40.6361L16.984 40.6308V36.2015L16.9653 36.2064L12.2292 34.9262L11.9264 31.5309Z" fill="#EBEBEB"/>
<path d="M3.16016 0H5.32131V2.13748H7.2983V0H9.45959V6.47281H7.29843V4.30535H5.32144V6.47281H3.16029V0H3.16016ZM12.3014 2.14654H10.3991V0H16.3665V2.14654H14.463V6.47281H12.3018V2.14654H12.3017H12.3014ZM17.3135 0H19.5669L20.9531 2.27438L22.3379 0H24.5923V6.47281H22.4399V3.26453L20.9531 5.56597H20.9158L19.428 3.26453V6.47281H17.3135V0ZM25.6678 0H27.8296V4.33334H30.8688V6.47281H25.6677V0H25.6678Z" fill="#ADB0B5"/>
<path d="M16.9689 29.4022H22.2056L21.7118 34.9235L16.9688 36.2051V40.6341L25.687 38.2154L25.7509 37.4961L26.7504 26.2882L26.8541 25.145H16.9689V29.4022ZM16.9689 20.7751V20.7855H27.2411L27.3263 19.8287L27.5202 17.6704L27.6218 16.5283H16.9689V20.7753V20.7751Z" fill="white"/>
</svg>
