<svg viewBox="0 0 43 48" fill="none" xmlns="http://www.w3.org/2000/svg">
<path d="M3.92099 43.1572L0 0L42.2413 0.016472L38.3532 43.1242L21.0877 48L3.92099 43.1572ZM35.1736 40.8017L38.4521 3.83802H21.1536L21.2854 44.6067L35.1736 40.8017ZM19.5391 9.25738H15.338L15.2886 31.3795L7.13357 29.1558L7.15005 34.2128L19.5391 37.5566V9.25738Z" fill="#ADB0B5"/>
<path opacity="0.986" d="M7.14929 34.2124L7.13281 29.1554C7.13281 29.1554 12.3388 30.6214 15.2878 31.3791L15.3372 9.27344H19.5383V37.5562L7.14929 34.2124V34.2124Z" fill="#EBEBEB" fill-opacity="0.9216"/>
<path d="M21.1562 3.82129H38.4547L35.1763 40.7849L21.1562 44.59V3.82129ZM34.2866 34.5914L35.4234 20.7712L27.0213 21.7101V14.3306L35.9835 14.2976L36.346 9.25712L22.8202 9.32301L23.0014 27.673L31.1729 26.2729L31.0576 30.358L22.8202 32.5488L22.9026 37.5564L34.2866 34.5914Z" fill="#DBDBDB"/>
</svg>
