<svg viewBox="0 0 53 48" fill="none" xmlns="http://www.w3.org/2000/svg">
<path d="M21.2977 48C20.6549 48 20.0165 47.8314 19.453 47.5069L13.5811 44.0305C12.7041 43.54 13.132 43.3666 13.4213 43.2666C14.5906 42.8572 14.8279 42.7647 16.0761 42.0559C16.2073 41.981 16.379 42.0075 16.5133 42.0867L21.0243 44.7636C21.1872 44.8516 21.4184 44.8516 21.5694 44.7636L39.1582 34.6109C39.3211 34.5184 39.4268 34.3291 39.4268 34.1354V13.8389C39.4268 13.6363 39.3211 13.4558 39.1547 13.3546L21.5729 3.21068C21.41 3.11382 21.1943 3.11382 21.0314 3.21068L3.45306 13.3546C3.28267 13.4514 3.17437 13.6407 3.17437 13.8344V34.131C3.17437 34.3247 3.28003 34.5096 3.44733 34.6021L8.26391 37.3846C10.8791 38.6922 12.4773 37.1513 12.4773 35.6015V15.5691C12.4773 15.2829 12.7019 15.0628 12.988 15.0628H15.2158C15.4932 15.0628 15.7221 15.2829 15.7221 15.5691V35.6103C15.7221 39.0973 13.8201 41.1005 10.5137 41.1005C9.49667 41.1005 8.69537 41.1005 6.45879 39.9998L1.84474 37.3406C1.28376 37.0133 0.81829 36.5447 0.494641 35.9816C0.170992 35.4185 0.00045165 34.7805 0 34.131V13.8344C0 12.5136 0.704436 11.2809 1.84474 10.6293L19.4512 0.472192C20.5651 -0.157397 22.0444 -0.157397 23.1495 0.472192L40.734 10.6337C41.2949 10.96 41.7604 11.4277 42.0841 11.9901C42.4078 12.5525 42.5783 13.1899 42.5787 13.8389V34.1354C42.5787 35.4518 41.8699 36.6802 40.734 37.3406L23.1495 47.4977C22.5858 47.8222 21.9464 47.9923 21.296 47.9908" fill="#ADB0B5"/>
<path d="M26.7314 34.014C19.0355 34.014 17.4219 30.4812 17.4219 27.5182C17.4219 27.2364 17.6491 27.0119 17.9313 27.0119H20.2031C20.454 27.0119 20.6654 27.1946 20.705 27.4425C21.0484 29.7574 22.0698 30.925 26.7235 30.925C30.4306 30.925 32.0068 30.0876 32.0068 28.1218C32.0068 26.9903 31.5577 26.1494 25.7989 25.5859C20.9824 25.1104 18.0061 24.0493 18.0061 20.1969C18.0061 16.6483 21 14.535 26.0147 14.535C31.6457 14.535 34.4371 16.4898 34.7893 20.69C34.7951 20.7606 34.7863 20.8317 34.7633 20.8987C34.7402 20.9657 34.7036 21.0273 34.6556 21.0794C34.6076 21.1315 34.5493 21.1731 34.4844 21.2016C34.4195 21.2301 34.3494 21.2448 34.2786 21.2448H31.9936C31.7558 21.2448 31.5489 21.0775 31.5005 20.8485C30.9501 18.4138 29.6205 17.6345 26.0059 17.6345C21.9598 17.6345 21.4887 19.0434 21.4887 20.1001C21.4887 21.3813 22.0434 21.7555 27.5028 22.4775C32.9093 23.1952 35.4761 24.2078 35.4761 28.0073C35.4761 31.8377 32.2797 34.0347 26.7059 34.0347L26.7314 34.014ZM48.1295 12.5098H48.7195C49.2038 12.5098 49.2963 12.1708 49.2963 11.9726C49.2963 11.4531 48.9396 11.4531 48.7415 11.4531H48.1339L48.1295 12.5098ZM47.4119 10.8455H48.7195C49.1686 10.8455 50.0491 10.8455 50.0491 11.8494C50.0491 12.5494 49.6 12.6947 49.3315 12.7827C49.8554 12.818 49.8906 13.1614 49.9611 13.6457C49.9963 13.9495 50.0535 14.4734 50.1592 14.6495H49.3535C49.3315 14.4734 49.2082 13.5048 49.2082 13.452C49.1554 13.2362 49.0805 13.1306 48.812 13.1306H48.1471V14.6539H47.4119V10.8455ZM45.8401 12.7387C45.8401 14.3149 47.1125 15.5917 48.6755 15.5917C50.2516 15.5917 51.524 14.2885 51.524 12.7387C51.524 11.1581 50.234 9.90336 48.6711 9.90336C47.1301 9.90336 45.8357 11.1405 45.8357 12.7343L45.8401 12.7387ZM52.07 12.7475C52.07 14.6143 50.5422 16.1376 48.6799 16.1376C46.8307 16.1376 45.2898 14.6319 45.2898 12.7475C45.2898 10.8279 46.8659 9.35742 48.6799 9.35742C50.507 9.35742 52.0656 10.8323 52.0656 12.7475" fill="#ADB0B5"/>
</svg>
