<svg viewBox="0 0 93 48" fill="none" xmlns="http://www.w3.org/2000/svg">
<path d="M46.1054 48C71.5686 48 92.2107 37.2548 92.2107 24C92.2107 10.7452 71.5686 0 46.1054 0C20.6421 0 0 10.7452 0 24C0 37.2548 20.6421 48 46.1054 48Z" fill="#ADB0B5"/>
<path fill-rule="evenodd" clip-rule="evenodd" d="M12.9453 38.2104L17.9982 12.6312H29.6819C34.7344 12.9471 37.2608 15.4732 37.2608 19.8946C37.2608 27.4736 31.261 31.8946 25.8923 31.5787H20.2087L18.9455 38.2104H12.9453ZM21.4716 26.8421L23.0507 17.3682H27.1558C29.3664 17.3682 30.9451 18.3155 30.9451 20.2102C30.6296 25.5789 28.1032 26.5263 25.2612 26.8421H21.4719H21.4716ZM36.087 31.5787L41.1395 6H47.1396L45.8764 12.6312H51.5603C56.6132 12.9471 58.5079 15.4732 57.8764 18.6314L55.6659 31.5787H49.3502L51.5607 19.8946C51.8762 18.3155 51.8762 17.3682 49.6661 17.3682H44.9291L42.0871 31.5787H36.087V31.5787ZM55.2614 38.2104L60.3139 12.6312H71.998C77.0509 12.9471 79.5773 15.4732 79.5773 19.8946C79.5773 27.4736 73.5771 31.8946 68.2087 31.5787H62.5244L61.2612 38.2104H55.2614V38.2104ZM63.7873 26.8421L65.3664 17.3682H69.4719C71.6825 17.3682 73.2612 18.3155 73.2612 20.2102C72.9457 25.5789 70.4192 26.5263 67.5773 26.8421H63.7876H63.7873Z" fill="white"/>
</svg>
