<svg viewBox="0 0 49 48" fill="none" xmlns="http://www.w3.org/2000/svg">
<path d="M23.9516 0C11.7025 0 12.4673 5.31194 12.4673 5.31194L12.4809 10.8153H24.17V12.4675H7.83821C7.83821 12.4675 0 11.5786 0 23.9378C0 36.2975 6.84138 35.8591 6.84138 35.8591H10.9243V30.1238C10.9243 30.1238 10.7042 23.2824 17.6565 23.2824H29.25C29.25 23.2824 35.7635 23.3877 35.7635 16.9873V6.40456C35.7635 6.40456 36.7528 0 23.9516 0ZM17.5063 3.70088C17.7825 3.70063 18.056 3.75486 18.3113 3.86045C18.5665 3.96604 18.7984 4.12092 18.9938 4.31624C19.1891 4.51156 19.344 4.74348 19.4496 4.99872C19.5551 5.25396 19.6094 5.52752 19.6091 5.80374C19.6094 6.07996 19.5551 6.35352 19.4496 6.60877C19.344 6.86401 19.1891 7.09593 18.9938 7.29124C18.7984 7.48656 18.5665 7.64145 18.3113 7.74704C18.056 7.85263 17.7825 7.90685 17.5063 7.9066C17.23 7.90685 16.9565 7.85263 16.7012 7.74704C16.446 7.64145 16.2141 7.48656 16.0188 7.29124C15.8234 7.09593 15.6686 6.86401 15.563 6.60877C15.4574 6.35352 15.4032 6.07996 15.4034 5.80374C15.4032 5.52752 15.4574 5.25396 15.563 4.99872C15.6686 4.74348 15.8234 4.51156 16.0188 4.31624C16.2141 4.12092 16.446 3.96604 16.7012 3.86045C16.9565 3.75486 17.23 3.70063 17.5063 3.70088Z" fill="#878787"/>
<path d="M24.2986 47.9997C36.5477 47.9997 35.7829 42.6878 35.7829 42.6878L35.7693 37.1847H24.08V35.5324H40.4118C40.4118 35.5324 48.25 36.4214 48.25 24.0617C48.25 11.7023 41.4086 12.1406 41.4086 12.1406H37.3257V17.8758C37.3257 17.8758 37.5458 24.7171 30.5935 24.7171H19C19 24.7171 12.4865 24.6119 12.4865 31.0125V41.5954C12.4865 41.5954 11.4974 47.9997 24.2984 47.9997H24.2986ZM30.7439 44.2992C30.4677 44.2995 30.1942 44.2453 29.9389 44.1397C29.6837 44.0341 29.4518 43.8792 29.2564 43.6839C29.0611 43.4886 28.9062 43.2566 28.8006 43.0014C28.6951 42.7462 28.6408 42.4726 28.6411 42.1964C28.6408 41.9201 28.695 41.6466 28.8006 41.3913C28.9062 41.136 29.0611 40.9041 29.2564 40.7087C29.4517 40.5134 29.6836 40.3585 29.9389 40.2529C30.1941 40.1473 30.4677 40.0931 30.7439 40.0933C31.0202 40.0931 31.2937 40.1473 31.549 40.2529C31.8042 40.3585 32.0361 40.5134 32.2314 40.7087C32.4268 40.904 32.5816 41.1359 32.6872 41.3912C32.7928 41.6464 32.847 41.92 32.8468 42.1962C32.847 42.4724 32.7928 42.746 32.6872 43.0012C32.5816 43.2564 32.4268 43.4884 32.2314 43.6837C32.0361 43.879 31.8042 44.0339 31.549 44.1395C31.2937 44.2451 31.0202 44.2993 30.7439 44.299V44.2992Z" fill="#ADB0B5"/>
</svg>
