<svg viewBox="0 0 54 48" fill="none" xmlns="http://www.w3.org/2000/svg">
<path d="M44.2362 15.5533C43.6886 15.3623 43.0933 15.1714 42.4981 15.0043C42.5934 14.5985 42.6886 14.2166 42.76 13.8108C44.0695 7.43751 43.2124 2.2816 40.2839 0.610705C37.4745 -1.01245 32.8795 0.682315 28.2607 4.71633C27.8083 5.09825 27.3798 5.52791 26.9274 5.95757C26.6179 5.67113 26.3322 5.38469 26.0465 5.12212C21.1657 0.801665 16.3088 -1.03632 13.3804 0.682315C10.571 2.30547 9.73767 7.1272 10.9281 13.1663C11.0471 13.7392 11.1662 14.3359 11.3328 14.9565C10.6424 15.1475 9.97575 15.3623 9.33292 15.5772C3.6427 17.5822 0 20.7092 0 23.9316C0 27.2734 3.90459 30.6152 9.8329 32.668C10.3091 32.8351 10.7852 32.9783 11.2852 33.1216C11.1186 33.766 10.9757 34.4105 10.8567 35.055C9.73767 40.9986 10.6186 45.7249 13.4042 47.3242C16.285 48.9951 21.1419 47.2764 25.856 43.1469C26.2369 42.8128 26.5941 42.4786 26.975 42.1205C27.4512 42.5979 27.9512 43.0276 28.4273 43.4572C32.9986 47.3958 37.5222 48.9951 40.3078 47.3719C43.1886 45.701 44.1409 40.6406 42.9029 34.4583C42.8076 33.9809 42.7124 33.5035 42.5696 33.0261C42.9029 32.9306 43.2362 32.8113 43.5695 32.7158C49.7359 30.663 53.7596 27.345 53.7596 23.9794C53.8072 20.6853 50.0454 17.5584 44.2362 15.5533ZM29.7606 6.45884C33.7366 2.9977 37.4507 1.63711 39.1411 2.59191C40.9506 3.64219 41.641 7.8433 40.522 13.3334C40.4506 13.6914 40.3792 14.0495 40.2839 14.4075C38.046 13.8824 35.6175 13.5005 33.0938 13.2618C31.6177 11.1612 30.0939 9.22775 28.5464 7.58073C28.9511 7.19881 29.3559 6.81689 29.7606 6.45884ZM17.0945 24.0032C17.7849 22.5472 18.5468 21.0911 19.3801 19.6589C20.2134 18.2029 21.0943 16.8184 21.999 15.5055C23.5942 15.3862 25.237 15.3146 26.9036 15.3146C28.5702 15.3146 30.213 15.3862 31.8081 15.5055C32.689 16.8184 33.57 18.2029 34.4033 19.6589C35.2366 21.115 36.0222 22.571 36.7127 23.9794C36.0222 25.4116 35.2366 26.8915 34.4033 28.3476C33.57 29.8036 32.689 31.212 31.8319 32.5248C30.2368 32.6442 28.594 32.6919 26.9036 32.6919C25.237 32.6919 23.5942 32.6442 22.0228 32.5487C21.1181 31.212 20.2372 29.8036 19.4039 28.3714C18.5706 26.8915 17.8087 25.4354 17.0945 24.0032ZM15.8803 26.7005C16.3564 27.6315 16.8802 28.5624 17.404 29.4933C17.9516 30.4481 18.523 31.3552 19.0944 32.2622C17.3326 32.0713 15.666 31.8087 14.1422 31.4745C14.6184 29.923 15.1898 28.3237 15.8803 26.7005ZM15.8803 21.2821C15.2136 19.6828 14.6422 18.1312 14.166 16.6036C15.7136 16.2694 17.3326 15.9829 19.0468 15.7681C18.4754 16.6513 17.9278 17.5584 17.404 18.4893C16.8802 19.4202 16.3564 20.3511 15.8803 21.2821ZM36.4032 29.4695C36.9508 28.5147 37.4745 27.5599 37.9745 26.6051C38.6888 28.2521 39.3078 29.8275 39.784 31.3552C38.2126 31.7132 36.546 31.9997 34.7604 32.2145C35.308 31.3313 35.8556 30.4243 36.4032 29.4695ZM37.9269 21.2821C37.4507 20.3511 36.927 19.4202 36.3794 18.4654C35.8556 17.5345 35.308 16.6513 34.7366 15.7681C36.4508 15.9829 38.0936 16.2694 39.6411 16.6274C39.1888 18.1312 38.6174 19.6828 37.9269 21.2821ZM26.9274 9.22775C27.9988 10.3735 29.0463 11.6625 30.0939 13.0708C29.0463 13.0231 27.975 12.9992 26.9036 12.9992C25.8322 12.9992 24.7846 13.0231 23.7371 13.0708C24.7846 11.6864 25.856 10.3974 26.9274 9.22775ZM14.5232 2.66352C16.3326 1.61324 20.3086 3.11705 24.4989 6.84076C24.7608 7.07946 25.0465 7.31816 25.3084 7.58073C23.7371 9.25162 22.1895 11.1851 20.7372 13.2618C18.2135 13.5005 15.785 13.8824 13.547 14.3837C13.4042 13.8108 13.2851 13.2618 13.1661 12.7128C12.1661 7.55686 12.8328 3.64219 14.5232 2.66352ZM11.9042 30.9017C11.4519 30.7584 10.9995 30.6391 10.571 30.4959C7.95203 29.5888 5.78546 28.4192 4.28553 27.1541C2.95225 26.0083 2.28561 24.8626 2.28561 23.9555C2.28561 21.9982 5.21406 19.4918 10.071 17.7732C10.6662 17.5584 11.2852 17.3674 11.928 17.2003C12.5947 19.3963 13.4756 21.6879 14.547 24.0032C13.4756 26.3425 12.5947 28.6818 11.9042 30.9017ZM24.3561 41.4044C22.2609 43.2424 20.1658 44.5314 18.3325 45.1759C16.6659 45.7726 15.3565 45.7726 14.5708 45.3191C12.8804 44.3404 12.1661 40.5451 13.1423 35.4608C13.2613 34.8879 13.3804 34.2912 13.5232 33.6706C15.7374 34.148 18.1659 34.506 20.7848 34.7208C22.2847 36.8214 23.8323 38.7549 25.4036 40.4496C25.0465 40.7838 24.7132 41.118 24.3561 41.4044ZM26.9988 38.8026C25.9036 37.633 24.8322 36.3201 23.7609 34.9118C24.7846 34.9595 25.8322 34.9834 26.9036 34.9834C27.9988 34.9834 29.094 34.9595 30.1415 34.9118C29.094 36.344 28.0464 37.633 26.9988 38.8026ZM40.9506 42.0012C40.6411 43.7437 39.9744 44.8894 39.1888 45.343C37.4984 46.3216 33.8795 45.0565 29.9511 41.667C29.4987 41.2851 29.0463 40.8793 28.594 40.4258C30.1177 38.7549 31.6177 36.8214 33.0938 34.697C35.6889 34.4583 38.1412 34.0764 40.3792 33.5751C40.4982 34.0286 40.5935 34.4583 40.6649 34.8879C41.2125 37.6091 41.3077 40.0916 40.9506 42.0012ZM42.9029 30.4959C42.6172 30.5913 42.3077 30.6868 41.9982 30.7823C41.3077 28.6101 40.403 26.3186 39.284 23.9555C40.3554 21.6401 41.2363 19.3725 41.9029 17.2242C42.4505 17.3913 42.9981 17.5584 43.4981 17.7255C48.4741 19.4441 51.5216 21.9743 51.5216 23.9316C51.4977 26.0322 48.2122 28.7295 42.9029 30.4959Z" fill="#ADB0B5"/>
<path d="M30.2982 27.3395C32.1764 25.4565 32.1764 22.4036 30.2982 20.5206C28.4201 18.6376 25.3751 18.6376 23.4969 20.5206C21.6188 22.4036 21.6188 25.4565 23.4969 27.3395C25.3751 29.2225 28.4201 29.2225 30.2982 27.3395Z" fill="#ADB0B5"/>
</svg>
