<svg viewBox="0 0 137 48" fill="none" xmlns="http://www.w3.org/2000/svg">
<path d="M118.827 41.7589V48.0003H130.103C132.413 48.0003 136.379 46.3106 136.517 41.5865V39.1727C136.517 35.1382 133.206 32.7589 130.103 32.7589H124.482V29.8623H135.62V23.5865H124.93C122.172 23.5865 118.482 25.8623 118.482 30.1037V32.2761C118.482 36.5175 122.137 38.6899 124.93 38.6899C132.689 38.7244 123.068 38.6899 130.241 38.6899V41.7244L118.827 41.7589ZM58.4131 40.2416C58.4131 40.2416 64.4476 39.7244 64.4476 31.9313C64.4476 24.1382 57.1373 23.4141 57.1373 23.4141H43.9648V48.0003H50.5855V42.0692L56.3097 48.0003H66.1028L58.4131 40.2416V40.2416ZM55.8614 35.2072H50.5855V29.5865H55.8959C55.8959 29.5865 57.3786 30.1382 57.3786 32.3796C57.3786 34.621 55.8614 35.2072 55.8614 35.2072V35.2072ZM80.7924 23.5865H74.0683C69.2752 23.5865 67.6545 27.9313 67.6545 30.0003V48.0003H74.3786V43.6899H80.689V48.0003H87.2062V30.0003C87.2062 24.7589 82.4476 23.5865 80.7924 23.5865V23.5865ZM80.689 36.7244H74.3442V30.7589C74.3442 30.7589 74.3442 29.4141 76.4476 29.4141H78.7579C80.62 29.4141 80.6545 30.7589 80.6545 30.7589V36.7244H80.689V36.7244ZM90.2752 23.5865H97.2752V48.0003H90.2752V23.5865ZM107.103 41.6899V23.5865H100.137V48.0003H116.517V41.6899H107.103Z" fill="#ADB0B5"/>
<path d="M2.41406 48.0001H29.6554C29.6554 48.0001 24.4485 24.2415 41.6899 14.6208C45.4485 12.7932 57.4141 5.96563 77.0003 20.4484C77.621 19.9311 78.2072 19.5174 78.2072 19.5174C78.2072 19.5174 60.2761 1.6208 40.3106 3.6208C30.2761 4.51735 17.9313 13.6553 10.6899 25.7242C3.44855 37.7932 2.41406 48.0001 2.41406 48.0001Z" fill="#ADB0B5"/>
<path d="M2.41406 48.0001H29.6554C29.6554 48.0001 24.4485 24.2415 41.6899 14.6208C45.4485 12.7932 57.4141 5.96563 77.0003 20.4484C77.621 19.9311 78.2072 19.5174 78.2072 19.5174C78.2072 19.5174 60.2761 1.6208 40.3106 3.6208C30.2761 4.51735 17.9313 13.6553 10.6899 25.7242C3.44855 37.7932 2.41406 48.0001 2.41406 48.0001Z" fill="#ADB0B5"/>
<path d="M2.41406 47.9997H29.6554C29.6554 47.9997 24.4485 24.2411 41.6899 14.6204C45.4485 12.7928 57.4141 5.96521 77.0003 20.448C77.621 19.9307 78.2072 19.5169 78.2072 19.5169C78.2072 19.5169 60.2761 1.62039 40.3106 3.62039C30.2416 4.51694 17.8968 13.6549 10.6554 25.7238C3.41406 37.7928 2.41406 47.9997 2.41406 47.9997ZM59.1727 5.55142L59.3106 3.24108C59.0003 3.06866 58.1382 2.65487 55.9658 2.03418L55.8279 4.31004C56.9658 4.68935 58.0692 5.10315 59.1727 5.55142Z" fill="#ADB0B5"/>
<path d="M55.8965 12.8621L55.7586 15.0345C56.8965 15.069 58.0345 15.2069 59.1724 15.4483L59.3103 13.3103C58.1379 13.069 57 12.931 55.8965 12.8621ZM43.1379 2.10345H43.4828L42.7931 0C41.7241 0 40.6207 0.0689655 39.4828 0.206897L40.1379 2.24138C41.1379 2.13793 42.1379 2.10345 43.1379 2.10345V2.10345ZM44.7931 14.7931L45.5862 17.1724C46.5862 16.6897 47.5862 16.2759 48.5862 15.9655L47.8276 13.6897C46.6552 14.0345 45.6552 14.4138 44.7931 14.7931ZM29.1379 5.72414L27.5862 3.34483C26.7241 3.7931 25.8276 4.27586 24.8965 4.82759L26.4828 7.24138C27.3793 6.68965 28.2414 6.17241 29.1379 5.72414ZM36.2069 21.2414L37.8621 23.7241C38.4483 22.8621 39.1379 22.069 39.8965 21.2759L38.3448 18.931C37.5517 19.6552 36.8276 20.4483 36.2069 21.2414ZM31.2069 32.3448L34 34.5517C34.1379 33.2069 34.3793 31.8621 34.7241 30.5172L32.2414 28.5517C31.7931 29.8276 31.4828 31.1034 31.2069 32.3448V32.3448ZM16.1034 15.9655L13.6552 13.8276C12.7586 14.6897 11.8966 15.5517 11.1034 16.4138L13.7586 18.6897C14.4828 17.7586 15.2759 16.8276 16.1034 15.9655ZM5.68965 31.3793L1.72414 29.931C1.06897 31.4138 0.344828 33.1379 0 34.069L3.96552 35.5172C4.41379 34.3448 5.13793 32.6552 5.68965 31.3793ZM30.6897 41.1034C30.7586 42.931 30.931 44.4138 31.1034 45.4483L35.2414 46.931C34.931 45.5862 34.6207 44.069 34.4138 42.4483L30.6897 41.1034Z" fill="#ADB0B5"/>
</svg>
