<svg viewBox="0 0 54 48" fill="none" xmlns="http://www.w3.org/2000/svg">
<path d="M15.5658 0C14.1088 0.00316094 12.6826 0.830275 11.9493 2.09191L0.541628 21.9081C-0.180543 23.1731 -0.180543 24.8267 0.541628 26.0917L11.9493 45.9081C12.6826 47.1697 14.1088 47.9971 15.5658 48H38.3811C39.8381 47.9968 41.2643 47.1697 41.9976 45.9081L53.4053 26.0917C54.1274 24.8267 54.1272 23.1731 53.4053 21.9081L41.9976 2.09191C41.2643 0.830064 39.8381 0.00295022 38.3811 0H15.5658ZM15.773 11.5929C15.8044 11.5897 15.8372 11.5897 15.8686 11.5929H19.8038C19.8912 11.5957 19.9765 11.6206 20.0518 11.6653C20.127 11.7099 20.1897 11.7729 20.2341 11.8483L26.9098 23.7444C26.9435 23.8034 26.965 23.8687 26.973 23.9361C26.9815 23.8687 27.0029 23.8034 27.0367 23.7444L33.6964 11.8483C33.7422 11.7707 33.8075 11.7064 33.8857 11.6617C33.9639 11.6169 34.0524 11.5932 34.1425 11.5929H38.0778C38.4262 11.5958 38.6873 12.0348 38.524 12.3433L32.0076 24L38.524 35.6407C38.7027 35.9509 38.4355 36.4101 38.0778 36.4071H34.1425C34.0508 36.4052 33.9613 36.3791 33.8829 36.3314C33.8046 36.2838 33.7402 36.2162 33.6964 36.1357L27.0367 24.2394C27.003 24.1804 26.9814 24.1153 26.9732 24.0478C26.965 24.1153 26.9435 24.1805 26.9098 24.2396L20.2339 36.1357C20.1915 36.214 20.1296 36.28 20.0544 36.3275C19.9791 36.3751 19.8929 36.4025 19.804 36.4071H15.8684C15.5108 36.4103 15.2436 35.9509 15.4223 35.6407L21.9387 24L15.4223 12.3433C15.2662 12.0617 15.4567 11.6529 15.7727 11.5929H15.773Z" fill="#ADB0B5"/>
</svg>
