<svg width="74" height="74" fill="none" xmlns="http://www.w3.org/2000/svg"><path d="M45.438 4.392c31.883 21.692 21.544 45.533 21.544 45.533s9.056 10.22 5.415 19.171c0 0-3.76-6.25-9.996-6.25-6.027 0-9.593 6.25-21.767 6.25C13.571 69.096.74 46.48.74 46.48c24.393 16.083 41.058 4.684 41.058 4.684-11.01-6.37-34.374-36.865-34.374-36.865C27.79 31.634 36.576 36.184 36.576 36.184 31.295 31.858 16.57 10.659 16.57 10.659c11.786 11.92 35.209 28.54 35.209 28.54 6.714-18.365-6.34-34.806-6.34-34.806z" fill="#ADADAD"/></svg>